<?xml version="1.0" encoding="utf-8"?>
<!-- Generator: Adobe Illustrator 22.1.0, SVG Export Plug-In . SVG Version: 6.00 Build 0)  -->
<svg version="1.1" id="Capa_1" xmlns="http://www.w3.org/2000/svg" xmlns:xlink="http://www.w3.org/1999/xlink" x="0px" y="0px"
	 viewBox="0 0 329 164.1" style="enable-background:new 0 0 329 164.1;" xml:space="preserve">
<style type="text/css">
	.st0{fill-rule:evenodd;clip-rule:evenodd;fill:#9AAE04;}
	.st1{fill-rule:evenodd;clip-rule:evenodd;fill:#FFFFFF;}
	.st2{fill:#848483;}
</style>
<g>
	<g>
		<g>
			<g>
				<path class="st0" d="M323,21.5c3.8,36-7.9,152.4-58.1,113.4c-71-55.2-125.2,15.5-138.3-28.7c-5.7-19.2,11.1-86.1,83.7-87.9
					C278,16.5,319.2-14.6,323,21.5z"/>
				<g>
					<path class="st1" d="M189.2,45.5c-0.1-2-0.6-3.6-1.4-5c-0.8-1.4-2.3-2.1-4.5-2.2c-2.2,0.1-4,0.8-5.3,2.3c-1.3,1.4-2,3-2.2,4.9
						H189.2z M176.6,53.7c0.7,1.9,1.8,3.4,3.3,4.6c1.5,1.2,3.5,1.8,6,1.8c1.5,0,3.1-0.5,4.6-1.4c1.5-0.9,2.7-1.9,3.7-3.1l0.2-0.3
						l1.4,1l-0.2,0.3c-1.5,2.1-3.3,3.9-5.4,5.3c-2.2,1.4-4.6,2.1-7.4,2.2c-2.7,0-4.9-0.6-6.8-1.8c-1.8-1.2-3.2-2.8-4.1-4.9
						c-0.9-2-1.4-4.3-1.4-6.9c0-2.6,0.6-5,1.8-7.1c1.2-2.1,2.8-3.9,4.8-5.2c2-1.3,4.3-2,6.9-2c3.4,0,6.2,1.1,8.1,3.1
						c1.9,2,2.9,4.7,3,8.1l0,0.4h-19.6C175.6,49.9,176,51.9,176.6,53.7z"/>
					<path class="st1" d="M223.7,38.5l-0.3,0c-0.6,0.1-1.2,0.3-1.8,0.8c-0.6,0.4-1.1,1.4-1.5,2.5l-7.6,21.6l-5,0.1L200,43.7
						c-0.5-1.6-1.1-2.7-1.8-3.5c-0.7-0.8-1.7-1.5-3-1.6l-0.3,0v-1.9c0,0,11.8,0,12.2,0l0.4,0v1.9l-0.4,0c-1.1,0.1-1.8,0.3-2.2,0.5
						c-0.4,0.3-0.5,0.6-0.5,1.1c0,0.2,0.1,0.6,0.2,1.1c0.1,0.5,5.2,14.2,6.6,18.1c1.4-3.8,6.2-17.2,6.3-17.7
						c0.2-0.6,0.3-1.1,0.2-1.6c0-0.4-0.2-0.7-0.6-1c-0.4-0.3-1.1-0.5-2.2-0.5l-0.4,0v-1.9l0.4,0c0.4,0,8.8,0,8.8,0V38.5z"/>
					<path class="st1" d="M242.1,45.5c-0.1-2-0.6-3.6-1.4-5c-0.8-1.4-2.3-2.1-4.5-2.2c-2.2,0.1-4,0.8-5.3,2.3c-1.3,1.4-2,3-2.2,4.9
						H242.1z M229.6,53.7c0.7,1.9,1.8,3.4,3.3,4.6c1.5,1.2,3.5,1.8,6,1.8c1.5,0,3.1-0.5,4.6-1.4c1.5-0.9,2.7-1.9,3.7-3.1l0.2-0.3
						l1.4,1l-0.2,0.3c-1.5,2.1-3.3,3.9-5.4,5.3c-2.2,1.4-4.6,2.1-7.4,2.2c-2.7,0-4.9-0.6-6.8-1.8c-1.8-1.2-3.2-2.8-4.1-4.9
						c-0.9-2-1.4-4.3-1.4-6.9c0-2.6,0.6-5,1.8-7.1c1.2-2.1,2.8-3.9,4.8-5.2c2-1.3,4.4-2,6.9-2c3.4,0,6.2,1.1,8.1,3.1
						c1.9,2,2.9,4.7,3,8.1l0,0.4h-19.6C228.6,49.9,229,51.9,229.6,53.7z"/>
					<path class="st1" d="M263.3,37.9c1.7-1.1,3.6-1.7,5.7-1.7c0.5,0,1,0.1,1.7,0.3c0.6,0.2,1.2,0.3,1.6,0.5l0.2,0.1l0,5.5h-3.8
						l-0.1-0.3c-0.1-0.7-0.4-1.3-0.7-1.9c-0.3-0.6-0.9-0.9-1.7-0.9c-1.4,0.1-2.7,0.6-3.9,1.5c-1.2,0.9-2.3,1.8-3.2,2.8l0,15.2
						c0,0.8,0.1,1.3,0.3,1.7c0.2,0.3,0.6,0.6,1.4,0.8c0.7,0.1,1.8,0.2,3.3,0.2h0.4l0,1.9h-15.4v-1.9h0.4c2,0,3.1-0.2,3.6-0.5
						c0.5-0.3,0.7-1,0.6-2.2V42c0.1-1.1-0.2-1.8-0.6-2.2c-0.5-0.3-1.6-0.5-3.6-0.5l-0.4,0v-1.9l0.4,0c1.6-0.1,3-0.3,4.5-0.4
						c1.4-0.2,2.8-0.4,4.1-0.7l0.4-0.1l0.5,5.3C260.3,40.1,261.7,38.9,263.3,37.9z"/>
					<path class="st1" d="M295.2,56.1c0.4,2.1,1.2,3.6,2.3,4.4c1.2,0.9,2.9,1.3,5.1,1.3c0.8,0,1.7-0.1,2.6-0.4
						c0.9-0.3,1.6-0.7,2.2-1.3c0.6-0.6,0.9-1.3,0.9-2.3c0-1.1-0.5-2.1-1.5-2.8c-1-0.8-2.3-1.4-3.9-2.1c-1.6-0.6-3.1-1.3-4.7-2
						c-1.6-0.7-2.9-1.7-4-2.8c-1.1-1.2-1.6-2.7-1.7-4.5c0-1.7,0.6-3.1,1.6-4.2c1-1.1,2.3-1.9,3.8-2.4c1.5-0.5,3-0.8,4.5-0.8
						c1.5,0,2.9,0.2,4.4,0.6c1.4,0.4,2.8,0.8,4.1,1.3l0.2,0.1v5.1h-2.6l-0.1-0.3c-0.3-1.5-1-2.7-2.1-3.5c-1.1-0.9-2.5-1.3-4.1-1.3
						c-1.3,0-2.5,0.3-3.5,1c-1,0.6-1.6,1.6-1.6,3c0,0.9,0.5,1.7,1.6,2.4c1,0.7,2.3,1.4,3.9,2.1c1.6,0.7,3.1,1.4,4.7,2.1
						c1.6,0.8,2.9,1.7,3.9,2.8c1.1,1.1,1.7,2.5,1.7,4.1c0,1.9-0.5,3.5-1.4,4.8c-0.9,1.3-2.2,2.2-3.7,2.8c-1.5,0.6-3.2,0.9-5,0.9
						c-1.9,0-3.8-0.3-5.7-0.7c-1.9-0.5-3.5-1.1-4.7-1.8l-0.2-5.7l3,0L295.2,56.1z"/>
					<g>
						<path class="st1" d="M285,29.4c-0.6,0.7-1.5,1-2.5,1c-1,0-1.8-0.4-2.5-1c-0.6-0.7-1-1.5-1-2.5c0-1,0.4-1.8,1-2.5
							c0.6-0.7,1.5-1,2.5-1c1,0,1.8,0.4,2.5,1c0.6,0.7,1,1.5,1,2.5C286,27.9,285.6,28.7,285,29.4z"/>
						<path class="st1" d="M275.4,39.2l-0.4,0v-1.9l0.4,0c3.2-0.2,6.4-0.6,9.5-1.1l0.5-0.1c0,0-0.1,18.2-0.1,20.9
							c-0.1,1.9,0.2,3.1,0.7,3.7c0.5,0.5,1.5,0.8,3.4,0.9l0.4,0v1.9h-14.8l0-1.9l0.4,0c2.1-0.1,3.3-0.4,3.9-0.9
							c0.5-0.5,0.8-1.7,0.7-3.7V42.7c0.1-1.6-0.2-2.5-0.8-2.9C278.6,39.4,277.4,39.1,275.4,39.2z"/>
					</g>
				</g>
			</g>
			<g>
				<path class="st2" d="M6.7,148.4c0.9-1,2.3-1.4,3.7-1.4c2.7,0,3.9,1.3,3.9,3.9v4c0,0.5,0.1,1.1,0.1,1.6h-1.5
					c-0.1-0.4-0.1-1-0.1-1.4h0c-0.6,0.9-1.6,1.6-3,1.6c-1.9,0-3.4-0.9-3.4-2.7c0-3,3.5-3.2,5.8-3.2h0.6v-0.3c0-1.3-0.8-2-2.3-2
					c-1,0-2,0.3-2.7,1L6.7,148.4z M11.1,152c-2,0-3.2,0.5-3.2,1.8c0,1.2,0.9,1.6,2,1.6c1.8,0,2.7-1.3,2.7-2.8V152H11.1z"/>
				<path class="st2" d="M17,149.4c0-0.8-0.1-1.6-0.1-2.2h1.5c0,0.5,0,1,0,1.5h0c0.4-0.9,1.6-1.8,3.1-1.8c2.4,0,3.5,1.5,3.5,3.8v5.7
					h-1.5v-5.5c0-1.5-0.7-2.5-2.1-2.5c-2,0-2.9,1.4-2.9,3.5v4.5H17V149.4z"/>
				<path class="st2" d="M33,142.4h4.2l5.9,9.7h0v-9.7h3.1v13.9h-4l-6.1-9.9h0v9.9H33V142.4z"/>
				<path class="st2" d="M51.6,145.2h-4v-2.7h11v2.7h-4v11.2h-3.1V145.2z"/>
				<path class="st2" d="M62.8,145.2h-4v-2.7h11v2.7h-4v11.2h-3.1V145.2z"/>
				<path class="st2" d="M77,142.4h4.6c4.5,0,8.3,1.9,8.3,7c0,4.5-3.7,6.9-7.8,6.9h-5V142.4z M80,153.6h1.6c2.9,0,5-1.1,5-4.3
					c0-2.7-2.2-4-4.8-4H80V153.6z"/>
				<path class="st2" d="M96.4,142.4h2.5l6.1,13.9h-3.5l-1.2-3h-5.4l-1.2,3h-3.4L96.4,142.4z M97.5,146.5l-1.7,4.3h3.4L97.5,146.5z"
					/>
				<path class="st2" d="M107.1,145.2h-4v-2.7h11v2.7h-4v11.2h-3.1V145.2z"/>
				<path class="st2" d="M118.2,142.4h2.5l6.1,13.9h-3.5l-1.2-3h-5.4l-1.2,3h-3.4L118.2,142.4z M119.4,146.5l-1.7,4.3h3.4
					L119.4,146.5z"/>
				<path class="st2" d="M151.4,146.9c2.8,0,4.9,2,4.9,4.8c0,2.9-2.1,4.8-4.9,4.8c-2.8,0-4.9-2-4.9-4.8
					C146.5,148.9,148.6,146.9,151.4,146.9z M151.4,155.2c2,0,3.3-1.5,3.3-3.4c0-1.9-1.3-3.4-3.3-3.4c-2,0-3.3,1.5-3.3,3.4
					C148.1,153.7,149.4,155.2,151.4,155.2z"/>
				<path class="st2" d="M158.6,149.4c0-0.8-0.1-1.6-0.1-2.2h1.5c0,0.5,0,1,0,1.5h0c0.4-0.9,1.6-1.8,3.1-1.8c2,0,2.6,1.1,2.9,1.8
					c0.7-1.1,1.5-1.8,2.9-1.8c2.6,0,3.5,1.5,3.5,3.9v5.6h-1.5v-5.5c0-1.3-0.5-2.5-2.2-2.5c-1.3,0-2.4,1.1-2.4,2.7v5.3h-1.5v-5.2
					c0-2-0.5-2.8-1.8-2.8c-2,0-2.9,1.4-2.9,3.5v4.5h-1.5V149.4z"/>
				<path class="st2" d="M174.8,147.2h1.5v1.3h0c0.8-1,2-1.6,3.3-1.6c2.9,0,4.8,2,4.8,4.8c0,2.8-2,4.8-4.6,4.8c-1.7,0-3-0.8-3.6-1.9
					h0v6.1h-1.5V147.2z M179.6,155.2c2,0,3.3-1.5,3.3-3.4c0-1.9-1.3-3.4-3.3-3.4c-2,0-3.3,1.5-3.3,3.4
					C176.3,153.7,177.6,155.2,179.6,155.2z"/>
				<path class="st2" d="M186.5,148.4c0.9-1,2.3-1.4,3.7-1.4c2.7,0,3.9,1.3,3.9,3.9v4c0,0.5,0.1,1.1,0.1,1.6h-1.5
					c-0.1-0.4-0.1-1-0.1-1.4h0c-0.6,0.9-1.6,1.6-3,1.6c-1.9,0-3.4-0.9-3.4-2.7c0-3,3.5-3.2,5.8-3.2h0.6v-0.3c0-1.3-0.8-2-2.3-2
					c-1,0-2,0.3-2.7,1L186.5,148.4z M190.9,152c-1.9,0-3.2,0.5-3.2,1.8c0,1.2,0.9,1.6,2,1.6c1.8,0,2.7-1.3,2.7-2.8V152H190.9z"/>
				<path class="st2" d="M196.6,149.4c0-0.8-0.1-1.6-0.1-2.2h1.5c0,0.5,0,1,0,1.5h0c0.4-0.9,1.6-1.8,3.1-1.8c2.4,0,3.5,1.5,3.5,3.8
					v5.7h-1.5v-5.5c0-1.5-0.7-2.5-2.1-2.5c-2,0-2.9,1.4-2.9,3.5v4.5h-1.5V149.4z"/>
				<path class="st2" d="M210.8,158.5c-0.6,1.6-1.2,2.6-3.1,2.6c-0.4,0-1,0-1.4-0.2l0.2-1.3c0.3,0.1,0.7,0.2,1.1,0.2
					c1,0,1.4-0.6,1.7-1.5l0.6-1.7l-3.8-9.3h1.8l2.9,7.2h0l2.7-7.2h1.7L210.8,158.5z"/>
				<g>
					<path class="st2" d="M143.5,145.3c-0.8-1.1-2.1-1.7-3.5-1.7c-3.1,0-5.3,2.7-5.3,5.8c0,3.2,2.2,5.8,5.3,5.8c1.7,0,3-0.7,4-1.9
						l1.2,1c-1.2,1.7-3,2.4-5.2,2.4c-4,0-7-3.1-7-7.3c0-4.1,2.9-7.3,7-7.3c1.9,0,3.7,0.6,4.9,2.2L143.5,145.3z"/>
				</g>
			</g>
		</g>
	</g>
</g>
</svg>
