<svg width="273" height="133" xmlns="http://www.w3.org/2000/svg">

 <g>
  <title>background</title>
  <rect fill="none" id="canvas_background" height="135" width="275" y="-1" x="-1"/>
 </g>
 <g>
  <title>Layer 1</title>
  <g stroke="null" id="svg_1">
   <rect stroke="null" x="-23.528303" y="-23.150944" id="svg_2" height="180" width="320" fill="none"/>
   <g stroke="null" id="svg_3">
    <g stroke="null" id="svg_4">
     <path stroke="null" id="svg_5" d="m155.671697,31.349056c-0.7,-1.1 -2,-1.8 -3.8,-1.8c-1.9,0.1 -3.4,0.7 -4.5,1.9c-1.1,1.2 -1.7,2.5 -1.9,4.1l11.3,0c0,-1.6 -0.4,-3 -1.1,-4.2z"/>
     <path stroke="null" id="svg_6" d="m200.371697,31.349056c-0.7,-1.1 -2,-1.8 -3.8,-1.8c-1.9,0.1 -3.4,0.7 -4.5,1.9c-1.1,1.2 -1.7,2.5 -1.9,4.1l11.3,0c0,-1.6 -0.4,-3 -1.1,-4.2z"/>
     <path stroke="null" id="svg_7" d="m269.771697,15.249056c-3.2,-30.4 -37.9,-4.2 -95,-2.8c-61.2,1.6 -75.4,57.9 -70.5,74.1c11.1,37.2 56.8,-22.4 116.6,24.2c42.2,33.1 52,-65.1 48.9,-95.5zm-36.3,2.6c0.5,-0.6 1.2,-0.8 2.1,-0.9c0.8,0 1.6,0.3 2.1,0.9c0.5,0.6 0.8,1.3 0.8,2.1c0,0.8 -0.3,1.5 -0.8,2.1c-0.5,0.6 -1.3,0.8 -2.1,0.9c-0.8,0 -1.5,-0.3 -2.1,-0.9c-0.5,-0.6 -0.8,-1.3 -0.8,-2.1c0,-0.9 0.2,-1.6 0.8,-2.1zm-71.2,27c-1.2,1.8 -2.8,3.3 -4.5,4.5c-1.8,1.2 -3.9,1.8 -6.2,1.8c-2.3,0 -4.2,-0.5 -5.7,-1.5c-1.5,-1 -2.7,-2.4 -3.4,-4.1c-0.8,-1.7 -1.1,-3.7 -1.2,-5.8c0,-2.2 0.5,-4.2 1.5,-6c1,-1.8 2.3,-3.3 4,-4.3c1.7,-1.1 3.7,-1.6 5.9,-1.7c2.9,0 5.2,0.9 6.8,2.6c1.6,1.7 2.4,4 2.5,6.8l0,0.3l-16.5,0c0,1.8 0.3,3.5 0.8,5c0.6,1.6 1.5,2.9 2.8,3.9c1.3,1 2.9,1.5 5.1,1.5c1.3,0 2.6,-0.4 3.8,-1.2c1.2,-0.8 2.3,-1.6 3.1,-2.6l0.2,-0.2l1.2,0.8l-0.2,0.2zm22,-14.5c-0.5,0.3 -0.9,1.2 -1.3,2.1l-6.5,18.2l-4.3,0l-6.2,-16.7c-0.4,-1.3 -1,-2.3 -1.5,-3c-0.6,-0.7 -1.4,-1.3 -2.5,-1.4l-0.3,0l0,-1.6c0,0 10,0 10.3,0l0.3,0l0,1.6l-0.3,0c-0.9,0.1 -1.5,0.2 -1.8,0.4c-0.3,0.2 -0.4,0.5 -0.4,0.9c0,0.2 0.1,0.5 0.2,0.9c0.1,0.4 4.4,12 5.5,15.2c1.2,-3.2 5.2,-14.5 5.3,-14.9c0.2,-0.5 0.2,-1 0.2,-1.3c0,-0.3 -0.1,-0.6 -0.5,-0.9c-0.3,-0.2 -1,-0.4 -1.9,-0.4l-0.3,0l0,-1.6l0.3,0c0.3,0 7.4,0 7.4,0l0,1.6l-0.3,0c-0.5,0.3 -1,0.5 -1.4,0.9zm22.7,14.5c-1.2,1.8 -2.8,3.3 -4.5,4.5c-1.8,1.2 -3.9,1.8 -6.2,1.8c-2.3,0 -4.2,-0.5 -5.7,-1.5c-1.5,-1 -2.7,-2.4 -3.4,-4.1c-0.8,-1.7 -1.1,-3.7 -1.1,-5.8c0,-2.2 0.5,-4.2 1.5,-6c1,-1.8 2.3,-3.3 4,-4.3c1.7,-1.1 3.7,-1.6 5.9,-1.7c2.9,0 5.2,0.9 6.8,2.6c1.6,1.7 2.4,4 2.5,6.8l0,0.3l-16.5,0c0,1.8 0.3,3.5 0.8,5c0.6,1.6 1.5,2.9 2.8,3.9c1.3,1 3,1.5 5.1,1.5c1.3,0 2.6,-0.4 3.8,-1.2c1.2,-0.8 2.3,-1.6 3.1,-2.6l0.2,-0.2l1.2,0.8l-0.3,0.2zm20.2,-11.8l-3.2,0l-0.1,-0.3c-0.1,-0.6 -0.3,-1.1 -0.6,-1.6c-0.3,-0.5 -0.8,-0.8 -1.4,-0.8c-1.2,0.1 -2.3,0.5 -3.3,1.3c-1,0.8 -1.9,1.5 -2.7,2.4l0,12.8c0,0.7 0.1,1.1 0.2,1.4c0.2,0.3 0.5,0.5 1.1,0.7c0.6,0.1 1.5,0.2 2.8,0.2l0.3,0l0,1.6l-13,0l0,-1.6l0.3,0c1.7,0 2.6,-0.2 3,-0.4c0.4,-0.3 0.6,-0.9 0.5,-1.8l0,-14.3c0.1,-1 -0.1,-1.5 -0.5,-1.8c-0.4,-0.3 -1.4,-0.5 -3,-0.5l-0.3,0l0,-1.6l0.3,0c1.3,-0.1 2.6,-0.2 3.8,-0.4c1.2,-0.1 2.3,-0.3 3.4,-0.6l0.4,-0.1l0.4,4.5c1.1,-1.1 2.3,-2.1 3.6,-3c1.4,-0.9 3.1,-1.4 4.8,-1.5c0.4,0 0.9,0.1 1.4,0.2c0.5,0.1 1,0.3 1.4,0.4l0.2,0.1l0.2,4.7zm14.4,17.7l-12.4,0l0,-1.6l0.3,0c1.8,-0.1 2.8,-0.3 3.3,-0.8c0.4,-0.5 0.7,-1.5 0.6,-3.1l0,-12c0,-1.3 -0.2,-2.1 -0.6,-2.5c-0.5,-0.3 -1.5,-0.5 -3.1,-0.5l-0.3,0l0,-1.6l0.3,0c2.7,-0.2 5.4,-0.5 8,-0.9l0.4,-0.1c0,0 -0.1,15.3 -0.1,17.7c-0.1,1.6 0.2,2.6 0.6,3.1c0.4,0.4 1.3,0.7 2.8,0.8l0.3,0l0,1.5l-0.1,0zm18.4,-2.7c-0.8,1.1 -1.8,1.9 -3.1,2.4c-1.3,0.5 -2.7,0.8 -4.2,0.8c-1.6,0 -3.2,-0.2 -4.8,-0.6c-1.6,-0.4 -2.9,-0.9 -4,-1.5l-0.2,-4.8l2.5,0l0,0.3c0.3,1.8 1,3 2,3.7c1,0.7 2.5,1.1 4.3,1.1c0.7,0 1.4,-0.1 2.2,-0.4c0.7,-0.2 1.4,-0.6 1.9,-1.1c0.5,-0.5 0.7,-1.1 0.8,-1.9c0,-1 -0.5,-1.7 -1.3,-2.4c-0.9,-0.6 -2,-1.2 -3.2,-1.7c-1.3,-0.5 -2.6,-1.1 -3.9,-1.7c-1.3,-0.6 -2.4,-1.4 -3.3,-2.4c-0.9,-1 -1.4,-2.3 -1.4,-3.8c0,-1.4 0.5,-2.6 1.4,-3.5c0.9,-0.9 1.9,-1.6 3.2,-2c1.3,-0.4 2.5,-0.6 3.8,-0.6c1.2,0 2.5,0.2 3.7,0.5c1.2,0.3 2.3,0.7 3.5,1.1l0.2,0.1l0,4.3l-2.2,0l-0.1,-0.3c-0.3,-1.3 -0.9,-2.2 -1.8,-3c-0.9,-0.7 -2.1,-1.1 -3.5,-1.1c-1.1,0 -2.1,0.3 -3,0.8c-0.8,0.5 -1.3,1.4 -1.4,2.5c0,0.8 0.5,1.5 1.3,2.1c0.9,0.6 2,1.2 3.3,1.7c1.3,0.6 2.6,1.1 3.9,1.8c1.3,0.6 2.4,1.4 3.3,2.3c0.9,0.9 1.4,2.1 1.4,3.4c-0.2,1.4 -0.6,2.8 -1.3,3.9z"/>
    </g>
    <path stroke="null" id="svg_8" d="m6.771697,125.349056c-1.7,0 -2.7,0.4 -2.7,1.5c0,1 0.7,1.3 1.7,1.3c1.5,0 2.3,-1.1 2.3,-2.3l0,-0.5l-1.3,0zm-3.8,-3.1c0.8,-0.8 2,-1.2 3.1,-1.2c2.3,0 3.3,1.1 3.3,3.3l0,3.3c0,0.4 0,0.9 0.1,1.3l-1.2,0c-0.1,-0.3 -0.1,-0.8 -0.1,-1.2l0,0c-0.5,0.8 -1.4,1.4 -2.6,1.4c-1.6,0 -2.9,-0.8 -2.9,-2.3c0,-2.6 3,-2.7 4.9,-2.7l0.5,0l0,-0.2c0,-1.1 -0.7,-1.7 -1.9,-1.7c-0.8,0 -1.7,0.3 -2.3,0.8l-0.9,-0.8z"/>
    <path stroke="null" id="svg_9" d="m11.771697,123.149056c0,-0.7 -0.1,-1.3 -0.1,-1.8l1.2,0c0,0.4 0,0.8 0,1.3l0,0c0.4,-0.8 1.3,-1.5 2.6,-1.5c2,0 3,1.3 3,3.2l0,4.8l-1.3,0l0,-4.7c0,-1.3 -0.6,-2.1 -1.8,-2.1c-1.7,0 -2.4,1.2 -2.4,3l0,3.8l-1.3,0l0,-6l0.1,0z"/>
    <polygon stroke="null" id="svg_10" points="25.271696090698242,117.24905014038086 28.771696090698242,117.24905014038086 33.77169609069824,125.44906234741211 33.77169609069824,125.44906234741211 33.77169609069824,117.24905014038086 36.3716983795166,117.24905014038086 36.3716983795166,129.04905319213867 32.971696853637695,129.04905319213867 27.8716983795166,120.6490592956543 27.8716983795166,120.6490592956543 27.8716983795166,129.04905319213867 25.271696090698242,129.04905319213867 "/>
    <polygon stroke="null" id="svg_11" points="40.971696853637695,119.54905319213867 37.57169532775879,119.54905319213867 37.57169532775879,117.24905014038086 46.8716983795166,117.24905014038086 46.8716983795166,119.54905319213867 43.471696853637695,119.54905319213867 43.471696853637695,129.04905319213867 40.971696853637695,129.04905319213867 "/>
    <polygon stroke="null" id="svg_12" points="50.3716983795166,119.54905319213867 46.971696853637695,119.54905319213867 46.971696853637695,117.24905014038086 56.27169990539551,117.24905014038086 56.27169990539551,119.54905319213867 52.971696853637695,119.54905319213867 52.971696853637695,129.04905319213867 50.3716983795166,129.04905319213867 "/>
    <path stroke="null" id="svg_13" d="m64.871697,126.649056l1.3,0c2.4,0 4.2,-0.9 4.2,-3.6c0,-2.3 -1.8,-3.4 -4,-3.4l-1.5,0l0,7zm-2.6,-9.4l3.9,0c3.8,0 7,1.6 7,5.9c0,3.8 -3.1,5.8 -6.6,5.8l-4.2,0l0,-11.7l-0.1,0z"/>
    <path stroke="null" id="svg_14" d="m79.671697,120.749056l-1.4,3.7l2.9,0l-1.5,-3.7zm-1,-3.5l2.1,0l5.1,11.8l-2.9,0l-1,-2.5l-4.6,0l-1,2.5l-2.8,0l5.1,-11.8z"/>
    <polygon stroke="null" id="svg_15" points="87.67169380187988,119.54905319213867 84.3716983795166,119.54905319213867 84.3716983795166,117.24905014038086 93.67169380187988,117.24905014038086 93.67169380187988,119.54905319213867 90.27169990539551,119.54905319213867 90.27169990539551,129.04905319213867 87.67169380187988,129.04905319213867 "/>
    <path stroke="null" id="svg_16" d="m98.071697,120.749056l-1.4,3.7l2.9,0l-1.5,-3.7zm-1,-3.5l2.1,0l5.1,11.8l-2.9,0l-1,-2.5l-4.6,0l-1,2.5l-2.9,0l5.2,-11.8z"/>
    <path stroke="null" id="svg_17" d="m125.071697,128.049056c1.7,0 2.8,-1.3 2.8,-2.9c0,-1.6 -1.1,-2.9 -2.8,-2.9c-1.7,0 -2.7,1.3 -2.7,2.9c-0.1,1.6 1,2.9 2.7,2.9m0,-7c2.4,0 4.1,1.7 4.1,4.1c0,2.4 -1.8,4.1 -4.1,4.1c-2.4,0 -4.1,-1.7 -4.1,-4.1c-0.1,-2.4 1.7,-4.1 4.1,-4.1"/>
    <path stroke="null" id="svg_18" d="m131.071697,123.149056c0,-0.7 -0.1,-1.3 -0.1,-1.8l1.2,0c0,0.4 0,0.8 0,1.3l0,0c0.4,-0.8 1.3,-1.5 2.6,-1.5c1.7,0 2.2,0.9 2.5,1.5c0.6,-0.9 1.3,-1.5 2.5,-1.5c2.2,0 3,1.2 3,3.3l0,4.7l-1.3,0l0,-4.6c0,-1.1 -0.4,-2.1 -1.9,-2.1c-1.1,0 -2,0.9 -2,2.3l0,4.5l-1.3,0l0,-4.4c0,-1.7 -0.4,-2.4 -1.5,-2.4c-1.7,0 -2.4,1.2 -2.4,3l0,3.8l-1.3,0l0,-6.1z"/>
    <path stroke="null" id="svg_19" d="m148.771697,128.049056c1.7,0 2.8,-1.3 2.8,-2.9c0,-1.6 -1.1,-2.9 -2.8,-2.9c-1.7,0 -2.8,1.3 -2.8,2.9c0,1.6 1.1,2.9 2.8,2.9m-4,-6.8l1.3,0l0,1.1l0,0c0.7,-0.8 1.7,-1.3 2.8,-1.3c2.4,0 4.1,1.7 4.1,4.1c0,2.3 -1.7,4.1 -3.9,4.1c-1.4,0 -2.5,-0.7 -3,-1.6l0,0l0,5.2l-1.3,0l0,-11.6z"/>
    <path stroke="null" id="svg_20" d="m158.371697,125.349056c-1.6,0 -2.7,0.4 -2.7,1.5c0,1 0.7,1.3 1.7,1.3c1.5,0 2.3,-1.1 2.3,-2.3l0,-0.5l-1.3,0zm-3.8,-3.1c0.8,-0.8 2,-1.2 3.1,-1.2c2.3,0 3.3,1.1 3.3,3.3l0,3.3c0,0.4 0,0.9 0.1,1.3l-1.2,0c-0.1,-0.3 -0.1,-0.8 -0.1,-1.2l0,0c-0.5,0.8 -1.4,1.4 -2.6,1.4c-1.6,0 -2.9,-0.8 -2.9,-2.3c0,-2.6 3,-2.7 4.9,-2.7l0.5,0l0,-0.2c0,-1.1 -0.7,-1.7 -1.9,-1.7c-0.8,0 -1.7,0.3 -2.3,0.8l-0.9,-0.8z"/>
    <path stroke="null" id="svg_21" d="m163.071697,123.149056c0,-0.7 -0.1,-1.3 -0.1,-1.8l1.2,0c0,0.4 0,0.8 0,1.3l0,0c0.3,-0.8 1.3,-1.5 2.6,-1.5c2,0 3,1.3 3,3.2l0,4.8l-1.3,0l0,-4.7c0,-1.3 -0.6,-2.1 -1.8,-2.1c-1.7,0 -2.4,1.2 -2.4,3l0,3.8l-1.3,0l0,-6l0.1,0z"/>
    <path stroke="null" id="svg_22" d="m175.071697,130.849056c-0.5,1.3 -1,2.2 -2.6,2.2c-0.4,0 -0.8,0 -1.2,-0.2l0.2,-1.1c0.3,0.1 0.5,0.1 0.9,0.1c0.9,0 1.2,-0.5 1.5,-1.3l0.5,-1.5l-3.2,-7.8l1.5,0l2.4,6.1l0,0l2.3,-6.1l1.4,0l-3.7,9.6z"/>
    <path stroke="null" id="svg_23" d="m118.371697,119.649056c-0.7,-0.9 -1.8,-1.4 -2.9,-1.4c-2.6,0 -4.5,2.3 -4.5,4.8c0,2.7 1.8,4.9 4.5,4.9c1.4,0 2.6,-0.6 3.4,-1.6l1,0.9c-1,1.4 -2.6,2 -4.4,2c-3.3,0 -5.9,-2.6 -5.9,-6.1c0,-3.4 2.5,-6.1 5.9,-6.1c1.6,0 3.1,0.5 4.1,1.8l-1.2,0.8z"/>
   </g>
  </g>
 </g>
</svg>